<svg width="165" height="219" viewBox="0 0 165 219" fill="none" xmlns="http://www.w3.org/2000/svg">
<path fill-rule="evenodd" clip-rule="evenodd" d="M159.714 123.179L35.1569 123.188C30.6953 123.188 27.7789 118.514 29.7296 114.507L84.3403 2.54251C85.8951 -0.653982 90.3663 -0.88576 92.2495 2.12725L114.094 37.0762C116.653 41.1708 116.527 46.3953 113.765 50.3643L92.0563 81.5953L129.622 75.7624C134.393 75.0188 139.154 77.2013 141.713 81.2959L163.548 116.245C165.431 119.268 163.268 123.179 159.714 123.179Z" fill="#00D2FF"/>
<path fill-rule="evenodd" clip-rule="evenodd" d="M4.53326 95.8309L129.09 95.8213C133.552 95.8213 136.468 100.495 134.517 104.503L79.9067 216.457C78.3519 219.654 73.8807 219.886 71.9975 216.873L50.1533 181.924C47.5941 177.829 47.7197 172.605 50.4816 168.636L72.1907 137.405L34.6247 143.237C29.8541 143.981 25.0932 141.799 22.534 137.704L0.699402 102.755C-1.19338 99.7421 0.979459 95.8309 4.53326 95.8309Z" fill="white"/>
<path fill-rule="evenodd" clip-rule="evenodd" d="M134.516 104.493C136.477 100.486 133.551 95.8115 129.089 95.8115L38.8341 95.8212L29.7178 114.508C27.7574 118.515 30.6835 123.189 35.1451 123.189L125.4 123.18L134.516 104.493Z" fill="url(#paint0_linear_4540_78960)"/>
<defs>
<linearGradient id="paint0_linear_4540_78960" x1="29.1042" y1="109.502" x2="135.133" y2="109.502" gradientUnits="userSpaceOnUse">
<stop stop-color="#00D2FF"/>
<stop offset="0.0133" stop-color="#00D2FF"/>
<stop offset="0.9734" stop-color="#051973"/>
<stop offset="1" stop-color="#051973"/>
</linearGradient>
</defs>
</svg>
